<svg width="75" height="75" viewBox="0 0 75 75" fill="none" xmlns="http://www.w3.org/2000/svg">
<path d="M24.875 19.5L25.0569 18.7724C24.655 18.6719 24.2478 18.9163 24.1474 19.3181L24.875 19.5ZM24.875 54.5L24.1474 54.6819C24.2478 55.0837 24.655 55.3281 25.0569 55.2276L24.875 54.5ZM54.0417 37L54.6657 37.416C54.8336 37.1641 54.8336 36.8359 54.6657 36.584L54.0417 37ZM24.875 54.5C25.6026 54.3181 25.6026 54.3182 25.6027 54.3184C25.6027 54.3184 25.6027 54.3185 25.6027 54.3185C25.6027 54.3185 25.6027 54.3185 25.6027 54.3184C25.6026 54.3181 25.6024 54.3175 25.6022 54.3165C25.6017 54.3146 25.6009 54.3112 25.5997 54.3064C25.5974 54.2968 25.5937 54.2815 25.5888 54.2605C25.579 54.2185 25.5641 54.1538 25.545 54.0663C25.5067 53.8913 25.4512 53.6252 25.3843 53.268C25.2503 52.5537 25.0704 51.475 24.89 50.032C24.5293 47.1459 24.1667 42.802 24.1667 37H22.6667C22.6667 42.8647 23.0332 47.2707 23.4016 50.218C23.5858 51.6916 23.7705 52.8005 23.91 53.5445C23.9797 53.9165 24.0382 54.1973 24.0797 54.3868C24.1004 54.4816 24.1169 54.5536 24.1284 54.6028C24.1342 54.6274 24.1387 54.6463 24.1419 54.6594C24.1435 54.666 24.1447 54.6712 24.1457 54.675C24.1461 54.6768 24.1465 54.6783 24.1468 54.6795C24.1469 54.6801 24.147 54.6806 24.1471 54.681C24.1472 54.6812 24.1473 54.6814 24.1473 54.6815C24.1473 54.6817 24.1474 54.6819 24.875 54.5ZM24.1667 37C24.1667 31.198 24.5293 26.8541 24.89 23.968C25.0704 22.525 25.2503 21.4463 25.3843 20.732C25.4512 20.3748 25.5067 20.1087 25.545 19.9337C25.5641 19.8462 25.579 19.7815 25.5888 19.7395C25.5937 19.7185 25.5974 19.7032 25.5997 19.6936C25.6009 19.6888 25.6017 19.6854 25.6022 19.6835C25.6024 19.6825 25.6026 19.6819 25.6027 19.6816C25.6027 19.6815 25.6027 19.6815 25.6027 19.6815C25.6027 19.6815 25.6027 19.6816 25.6027 19.6816C25.6026 19.6818 25.6026 19.6819 24.875 19.5C24.1474 19.3181 24.1473 19.3183 24.1473 19.3185C24.1473 19.3186 24.1472 19.3188 24.1471 19.319C24.147 19.3194 24.1469 19.3199 24.1468 19.3205C24.1465 19.3217 24.1461 19.3232 24.1457 19.325C24.1447 19.3288 24.1435 19.334 24.1419 19.3406C24.1387 19.3537 24.1342 19.3726 24.1284 19.3972C24.1169 19.4464 24.1004 19.5184 24.0797 19.6132C24.0382 19.8027 23.9797 20.0835 23.91 20.4555C23.7705 21.1995 23.5858 22.3084 23.4016 23.782C23.0332 26.7293 22.6667 31.1353 22.6667 37H24.1667ZM24.875 19.5C24.6931 20.2276 24.6929 20.2276 24.6928 20.2275C24.6928 20.2275 24.6926 20.2275 24.6926 20.2275C24.6925 20.2275 24.6925 20.2275 24.6927 20.2275C24.6929 20.2276 24.6934 20.2277 24.6943 20.2279C24.6962 20.2284 24.6994 20.2292 24.7041 20.2304C24.7134 20.2329 24.7284 20.2368 24.749 20.2423C24.7902 20.2533 24.8538 20.2707 24.9395 20.2952C25.1109 20.3442 25.3706 20.4215 25.7157 20.5328C26.4059 20.7554 27.438 21.1142 28.7892 21.6547C31.4914 22.7356 35.4705 24.5434 40.5446 27.4428L41.2888 26.1405C36.1544 23.2066 32.1127 21.3686 29.3462 20.262C27.963 19.7087 26.8987 19.3383 26.1762 19.1052C25.8149 18.9887 25.5391 18.9065 25.3516 18.8529C25.2579 18.8261 25.1862 18.8065 25.137 18.7933C25.1123 18.7867 25.0933 18.7817 25.08 18.7783C25.0733 18.7766 25.068 18.7752 25.0642 18.7742C25.0622 18.7737 25.0607 18.7733 25.0595 18.773C25.0589 18.7729 25.0583 18.7728 25.0579 18.7726C25.0577 18.7726 25.0574 18.7725 25.0573 18.7725C25.0571 18.7724 25.0569 18.7724 24.875 19.5ZM40.5446 27.4428C45.6052 30.3346 48.8413 32.8551 50.8028 34.6383C51.7836 35.5299 52.446 36.2375 52.8588 36.7155C53.0652 36.9545 53.2093 37.1361 53.2995 37.2548C53.3447 37.3141 53.3763 37.3576 53.3957 37.3848C53.4053 37.3983 53.4119 37.4078 53.4155 37.413C53.4173 37.4156 53.4184 37.4172 53.4187 37.4177C53.4189 37.4179 53.4189 37.4179 53.4187 37.4177C53.4186 37.4175 53.4185 37.4173 53.4183 37.417C53.4182 37.4169 53.418 37.4167 53.418 37.4166C53.4178 37.4163 53.4176 37.416 54.0417 37C54.6657 36.584 54.6655 36.5837 54.6653 36.5833C54.6652 36.5832 54.6649 36.5828 54.6647 36.5826C54.6644 36.582 54.664 36.5814 54.6635 36.5807C54.6626 36.5794 54.6615 36.5778 54.6603 36.5759C54.6577 36.5722 54.6545 36.5674 54.6504 36.5615C54.6424 36.5499 54.6313 36.534 54.6171 36.5141C54.5888 36.4743 54.5478 36.4182 54.4933 36.3465C54.3841 36.2031 54.2206 35.9973 53.994 35.735C53.5409 35.2104 52.8362 34.4597 51.8118 33.5284C49.7628 31.6657 46.4365 29.082 41.2888 26.1405L40.5446 27.4428ZM54.0417 37C53.4176 36.584 53.4178 36.5837 53.418 36.5834C53.418 36.5833 53.4182 36.5831 53.4183 36.583C53.4185 36.5827 53.4186 36.5825 53.4187 36.5823C53.4189 36.5821 53.4189 36.5821 53.4187 36.5823C53.4184 36.5828 53.4173 36.5844 53.4155 36.587C53.4119 36.5922 53.4053 36.6017 53.3957 36.6152C53.3763 36.6424 53.3447 36.6859 53.2995 36.7452C53.2093 36.8639 53.0652 37.0455 52.8588 37.2845C52.446 37.7625 51.7836 38.4701 50.8028 39.3617C48.8413 41.1449 45.6052 43.6654 40.5446 46.5572L41.2888 47.8595C46.4365 44.918 49.7628 42.3343 51.8118 40.4716C52.8362 39.5403 53.5409 38.7896 53.994 38.265C54.2206 38.0027 54.3841 37.7969 54.4933 37.6535C54.5478 37.5818 54.5888 37.5257 54.6171 37.4859C54.6313 37.466 54.6424 37.4501 54.6504 37.4385C54.6545 37.4326 54.6577 37.4278 54.6603 37.4241C54.6615 37.4222 54.6626 37.4206 54.6635 37.4193C54.664 37.4186 54.6644 37.418 54.6647 37.4174C54.6649 37.4172 54.6652 37.4168 54.6653 37.4167C54.6655 37.4163 54.6657 37.416 54.0417 37ZM40.5446 46.5572C35.4705 49.4566 31.4914 51.2644 28.7892 52.3453C27.438 52.8858 26.4059 53.2446 25.7157 53.4672C25.3706 53.5785 25.1109 53.6558 24.9395 53.7048C24.8538 53.7293 24.7902 53.7467 24.749 53.7577C24.7284 53.7632 24.7134 53.7671 24.7041 53.7696C24.6994 53.7708 24.6962 53.7716 24.6943 53.7721C24.6934 53.7723 24.6929 53.7725 24.6927 53.7725C24.6925 53.7725 24.6925 53.7725 24.6926 53.7725C24.6926 53.7725 24.6928 53.7725 24.6928 53.7725C24.6929 53.7724 24.6931 53.7724 24.875 54.5C25.0569 55.2276 25.0571 55.2276 25.0573 55.2275C25.0574 55.2275 25.0577 55.2274 25.0579 55.2274C25.0583 55.2272 25.0589 55.2271 25.0595 55.227C25.0607 55.2267 25.0622 55.2263 25.0642 55.2258C25.068 55.2248 25.0733 55.2234 25.08 55.2217C25.0933 55.2183 25.1123 55.2133 25.137 55.2067C25.1862 55.1935 25.2579 55.1739 25.3516 55.1471C25.5391 55.0935 25.8149 55.0113 26.1762 54.8948C26.8987 54.6617 27.963 54.2913 29.3462 53.738C32.1127 52.6314 36.1544 50.7934 41.2888 47.8595L40.5446 46.5572Z" fill="white"/>
</svg>
