<svg width="50" height="50" viewBox="0 0 50 50" fill="none" xmlns="http://www.w3.org/2000/svg">
<path d="M12.6057 35.1819C12.7062 35.5837 13.1134 35.8281 13.5152 35.7276C13.9171 35.6271 14.1614 35.2199 14.0609 34.8181L12.6057 35.1819ZM14.0609 15.1819C14.1614 14.7801 13.9171 14.3729 13.5152 14.2724C13.1134 14.1719 12.7062 14.4163 12.6057 14.8181L14.0609 15.1819ZM36.6667 35L36.4848 35.7276C36.6777 35.7758 36.882 35.7455 37.0525 35.6431C37.2231 35.5408 37.346 35.3749 37.3943 35.1819L36.6667 35ZM36.6667 15L37.3943 14.8181C37.2938 14.4163 36.8866 14.1719 36.4848 14.2724L36.6667 15ZM20 25L19.376 24.584C19.208 24.8359 19.208 25.1641 19.376 25.416L20 25ZM13.3333 35C14.0609 34.8181 14.061 34.8183 14.061 34.8184C14.061 34.8184 14.0611 34.8186 14.0611 34.8186C14.0611 34.8187 14.0611 34.8188 14.0611 34.8188C14.0611 34.8189 14.0611 34.8187 14.061 34.8183C14.0608 34.8176 14.0604 34.8161 14.0599 34.8137C14.0587 34.809 14.0568 34.801 14.0542 34.7898C14.0489 34.7674 14.0408 34.7319 14.0302 34.6835C14.009 34.5866 13.9779 34.4377 13.9403 34.2368C13.8649 33.835 13.7631 33.225 13.6609 32.407C13.4564 30.7709 13.25 28.302 13.25 25H11.75C11.75 28.3647 11.9603 30.8957 12.1725 32.593C12.2785 33.4416 12.3851 34.0817 12.466 34.5132C12.5064 34.729 12.5405 34.8926 12.5649 35.004C12.577 35.0597 12.5868 35.1024 12.5938 35.1321C12.5972 35.1469 12.6 35.1585 12.602 35.1668C12.603 35.1709 12.6038 35.1743 12.6045 35.1768C12.6048 35.178 12.605 35.1791 12.6052 35.18C12.6053 35.1804 12.6054 35.1808 12.6055 35.1811C12.6056 35.1812 12.6056 35.1814 12.6056 35.1815C12.6057 35.1817 12.6057 35.1819 13.3333 35ZM13.25 25C13.25 21.698 13.4564 19.2291 13.6609 17.593C13.7631 16.775 13.8649 16.165 13.9403 15.7632C13.978 15.5623 14.009 15.4134 14.0302 15.3165C14.0408 15.2681 14.0489 15.2326 14.0542 15.2102C14.0568 15.199 14.0587 15.191 14.0599 15.1863C14.0604 15.1839 14.0608 15.1824 14.061 15.1817C14.0611 15.1813 14.0611 15.1811 14.0611 15.1812C14.0611 15.1812 14.0611 15.1813 14.0611 15.1814C14.0611 15.1814 14.061 15.1816 14.061 15.1816C14.061 15.1817 14.0609 15.1819 13.3333 15C12.6057 14.8181 12.6057 14.8183 12.6056 14.8185C12.6056 14.8186 12.6056 14.8188 12.6055 14.8189C12.6054 14.8192 12.6053 14.8196 12.6052 14.82C12.605 14.8209 12.6048 14.822 12.6045 14.8232C12.6038 14.8257 12.603 14.8291 12.602 14.8332C12.6 14.8415 12.5972 14.8531 12.5938 14.8679C12.5868 14.8976 12.577 14.9403 12.5649 14.996C12.5405 15.1074 12.5064 15.271 12.466 15.4868C12.3851 15.9183 12.2785 16.5584 12.1725 17.407C11.9603 19.1043 11.75 21.6353 11.75 25H13.25ZM36.6667 15C35.9391 15.1819 35.939 15.1817 35.939 15.1816C35.939 15.1816 35.9389 15.1814 35.9389 15.1814C35.9389 15.1813 35.9389 15.1812 35.9389 15.1812C35.9389 15.1811 35.9389 15.1813 35.939 15.1817C35.9392 15.1824 35.9396 15.1839 35.9401 15.1863C35.9413 15.191 35.9432 15.199 35.9458 15.2102C35.9511 15.2326 35.9592 15.2681 35.9698 15.3165C35.991 15.4134 36.022 15.5623 36.0597 15.7632C36.1351 16.165 36.2369 16.775 36.3391 17.593C36.5436 19.2291 36.75 21.698 36.75 25L38.25 25C38.25 21.6353 38.0397 19.1043 37.8275 17.407C37.7215 16.5584 37.6149 15.9183 37.534 15.4868C37.4936 15.271 37.4595 15.1074 37.4351 14.996C37.423 14.9403 37.4132 14.8976 37.4062 14.8679C37.4028 14.8531 37.4 14.8415 37.398 14.8332C37.397 14.8291 37.3962 14.8257 37.3955 14.8232C37.3952 14.822 37.395 14.8209 37.3948 14.82C37.3947 14.8196 37.3946 14.8192 37.3945 14.8189C37.3944 14.8188 37.3944 14.8186 37.3944 14.8185C37.3943 14.8183 37.3943 14.8181 36.6667 15ZM36.75 25C36.75 28.302 36.5436 30.7709 36.3391 32.407C36.2369 33.225 36.1351 33.835 36.0597 34.2368C36.022 34.4377 35.991 34.5866 35.9698 34.6835C35.9592 34.7319 35.9511 34.7674 35.9458 34.7898C35.9432 34.801 35.9413 34.809 35.9401 34.8137C35.9396 34.8161 35.9392 34.8176 35.939 34.8183C35.9389 34.8187 35.9389 34.8189 35.9389 34.8188C35.9389 34.8188 35.9389 34.8187 35.9389 34.8186C35.9389 34.8186 35.939 34.8184 35.939 34.8184C35.939 34.8183 35.9391 34.8181 36.6667 35C37.3943 35.1819 37.3943 35.1817 37.3944 35.1815C37.3944 35.1814 37.3944 35.1812 37.3945 35.1811C37.3946 35.1808 37.3947 35.1804 37.3948 35.18C37.395 35.1791 37.3952 35.178 37.3955 35.1768C37.3962 35.1743 37.397 35.1709 37.398 35.1668C37.4 35.1585 37.4028 35.1469 37.4062 35.1321C37.4132 35.1024 37.423 35.0597 37.4351 35.004C37.4595 34.8926 37.4936 34.729 37.534 34.5132C37.6149 34.0817 37.7215 33.4416 37.8275 32.593C38.0397 30.8957 38.25 28.3647 38.25 25L36.75 25ZM36.6667 35C36.8486 34.2724 36.8487 34.2724 36.8489 34.2725C36.8489 34.2725 36.8491 34.2725 36.8492 34.2725C36.8493 34.2726 36.8494 34.2726 36.8495 34.2726C36.8496 34.2726 36.8495 34.2726 36.8491 34.2725C36.8485 34.2724 36.8471 34.272 36.8449 34.2714C36.8404 34.2703 36.8327 34.2683 36.8218 34.2653C36.7999 34.2595 36.7653 34.25 36.7181 34.2365C36.6236 34.2095 36.4787 34.1664 36.2849 34.1039C35.8975 33.9789 35.3146 33.7764 34.5494 33.4703C33.019 32.8582 30.7586 31.8316 27.8721 30.1821L27.1279 31.4845C30.0747 33.1684 32.3977 34.2252 33.9923 34.863C34.7896 35.1819 35.4046 35.3961 35.8244 35.5315C36.0343 35.5992 36.1954 35.6472 36.306 35.6788C36.3613 35.6946 36.404 35.7063 36.4338 35.7143C36.4488 35.7183 36.4605 35.7214 36.469 35.7236C36.4732 35.7247 36.4767 35.7256 36.4793 35.7262C36.4806 35.7266 36.4817 35.7268 36.4826 35.7271C36.4831 35.7272 36.4835 35.7273 36.4839 35.7274C36.484 35.7274 36.4843 35.7275 36.4843 35.7275C36.4846 35.7276 36.4848 35.7276 36.6667 35ZM27.8721 30.1821C24.999 28.5404 23.1691 27.1136 22.067 26.1117C21.5159 25.6107 21.1464 25.2156 20.9192 24.9525C20.8055 24.8209 20.7274 24.7223 20.6799 24.6598C20.6561 24.6285 20.64 24.6063 20.6309 24.5936C20.6263 24.5872 20.6235 24.5832 20.6224 24.5815C20.6219 24.5807 20.6217 24.5805 20.622 24.5809C20.6221 24.5811 20.6224 24.5815 20.6227 24.582C20.6229 24.5822 20.6231 24.5825 20.6233 24.5829C20.6234 24.583 20.6236 24.5833 20.6236 24.5834C20.6238 24.5837 20.624 24.584 20 25C19.376 25.416 19.3762 25.4163 19.3764 25.4167C19.3765 25.4168 19.3767 25.4171 19.3769 25.4174C19.3772 25.4178 19.3775 25.4184 19.3779 25.4189C19.3786 25.42 19.3795 25.4213 19.3805 25.4227C19.3824 25.4255 19.3847 25.429 19.3875 25.433C19.393 25.441 19.4003 25.4515 19.4094 25.4642C19.4276 25.4897 19.4529 25.5244 19.4861 25.5681C19.5525 25.6553 19.6502 25.778 19.7839 25.9329C20.0515 26.2427 20.4633 26.681 21.058 27.2216C22.2476 28.3031 24.1677 29.793 27.1279 31.4845L27.8721 30.1821ZM20 25C20.624 25.416 20.6238 25.4163 20.6237 25.4166C20.6236 25.4167 20.6234 25.417 20.6233 25.4171C20.6231 25.4175 20.6229 25.4177 20.6227 25.418C20.6224 25.4185 20.6221 25.4189 20.622 25.4191C20.6217 25.4195 20.6219 25.4193 20.6224 25.4184C20.6235 25.4168 20.6263 25.4128 20.6309 25.4064C20.64 25.3937 20.6561 25.3714 20.6799 25.3402C20.7274 25.2777 20.8055 25.1791 20.9192 25.0475C21.1464 24.7844 21.5159 24.3893 22.067 23.8883C23.1691 22.8864 24.999 21.4596 27.8721 19.8178L27.1279 18.5155C24.1677 20.207 22.2476 21.6969 21.058 22.7784C20.4633 23.319 20.0515 23.7573 19.7839 24.0671C19.6502 24.222 19.5525 24.3447 19.4861 24.4319C19.4529 24.4756 19.4276 24.5103 19.4094 24.5358C19.4003 24.5485 19.393 24.559 19.3875 24.567C19.3847 24.571 19.3824 24.5745 19.3805 24.5773C19.3795 24.5787 19.3786 24.58 19.3779 24.5811C19.3775 24.5816 19.3772 24.5822 19.3769 24.5826C19.3767 24.5829 19.3765 24.5832 19.3764 24.5833C19.3762 24.5837 19.376 24.584 20 25ZM27.8721 19.8178C30.7586 18.1684 33.019 17.1418 34.5494 16.5297C35.3146 16.2236 35.8975 16.0211 36.2849 15.8961C36.4787 15.8336 36.6236 15.7905 36.7181 15.7635C36.7653 15.75 36.7999 15.7405 36.8218 15.7347C36.8327 15.7317 36.8404 15.7297 36.8449 15.7286C36.8471 15.728 36.8485 15.7276 36.8491 15.7275C36.8495 15.7274 36.8496 15.7274 36.8495 15.7274C36.8494 15.7274 36.8493 15.7274 36.8492 15.7275C36.8491 15.7275 36.8489 15.7275 36.8489 15.7275C36.8487 15.7276 36.8486 15.7276 36.6667 15C36.4848 14.2724 36.4846 14.2724 36.4844 14.2725C36.4843 14.2725 36.484 14.2726 36.4839 14.2726C36.4835 14.2727 36.4831 14.2728 36.4826 14.2729C36.4817 14.2732 36.4806 14.2734 36.4793 14.2738C36.4767 14.2744 36.4732 14.2753 36.469 14.2764C36.4605 14.2786 36.4488 14.2817 36.4339 14.2857C36.404 14.2937 36.3613 14.3054 36.306 14.3212C36.1954 14.3528 36.0343 14.4008 35.8244 14.4685C35.4046 14.6039 34.7896 14.8181 33.9923 15.137C32.3977 15.7748 30.0747 16.8316 27.1279 18.5155L27.8721 19.8178Z" fill="white"/>
</svg>
