<svg width="42" height="42" viewBox="0 0 42 42" fill="none" xmlns="http://www.w3.org/2000/svg">
<path d="M16 12L15.6646 11.3292C15.4576 11.4327 15.3099 11.626 15.2646 11.8529L16 12ZM30.6667 8L31.4091 8.10607C31.4399 7.89083 31.3757 7.67285 31.2333 7.5086C31.0908 7.34435 30.8841 7.25 30.6667 7.25V8ZM16 12C16.3354 12.6708 16.3353 12.6709 16.3352 12.6709C16.3352 12.6709 16.3352 12.6709 16.3351 12.671C16.3351 12.671 16.3351 12.671 16.3351 12.671C16.3352 12.6709 16.3354 12.6708 16.3358 12.6706C16.3365 12.6703 16.338 12.6695 16.34 12.6685C16.3442 12.6665 16.3509 12.6632 16.3601 12.6587C16.3786 12.6496 16.4074 12.6357 16.4461 12.6172C16.5237 12.5803 16.6415 12.5251 16.7983 12.4544C17.1117 12.3128 17.5809 12.1088 18.1952 11.863C19.424 11.3715 21.2331 10.7134 23.5394 10.0545L23.1273 8.61219C20.7669 9.28659 18.9093 9.96183 17.6381 10.4703C17.0025 10.7246 16.5132 10.9372 16.1809 11.0873C16.0147 11.1624 15.8877 11.2218 15.8012 11.263C15.758 11.2835 15.7249 11.2996 15.7021 11.3107C15.6906 11.3163 15.6818 11.3207 15.6755 11.3237C15.6724 11.3253 15.6699 11.3265 15.6681 11.3274C15.6672 11.3279 15.6664 11.3282 15.6659 11.3285C15.6656 11.3287 15.6653 11.3288 15.6651 11.3289C15.665 11.329 15.6649 11.329 15.6648 11.3291C15.6647 11.3291 15.6646 11.3292 16 12ZM23.5394 10.0545C25.8363 9.39821 27.6338 9.07212 28.8491 8.91009C29.4568 8.82906 29.919 8.78904 30.2254 8.76928C30.3785 8.75939 30.4928 8.75458 30.5668 8.75223C30.6038 8.75105 30.6307 8.7505 30.6474 8.75023C30.6557 8.7501 30.6615 8.75004 30.6648 8.75002C30.6664 8.75 30.6673 8.75 30.6676 8.75C30.6678 8.75 30.6678 8.75 30.6676 8.75C30.6676 8.75 30.6674 8.75 30.6673 8.75C30.6672 8.75 30.667 8.75 30.667 8.75C30.6668 8.75 30.6667 8.75 30.6667 8C30.6667 7.25 30.6665 7.25 30.6663 7.25C30.6662 7.25 30.666 7.25 30.6658 7.25C30.6655 7.25 30.6651 7.25 30.6647 7.25C30.6639 7.25 30.6629 7.25001 30.6618 7.25001C30.6595 7.25002 30.6566 7.25004 30.653 7.25006C30.6458 7.25012 30.6361 7.25022 30.6238 7.25042C30.5991 7.25081 30.5642 7.25155 30.5192 7.25298C30.4291 7.25584 30.2985 7.26144 30.1288 7.27239C29.7893 7.29429 29.2932 7.3376 28.6509 7.42325C27.3662 7.59454 25.497 7.93513 23.1273 8.61219L23.5394 10.0545ZM16 27.3333C16.7442 27.2403 16.7442 27.2403 16.7442 27.2403C16.7442 27.2403 16.7442 27.2402 16.7442 27.2402C16.7442 27.24 16.7441 27.2398 16.7441 27.2396C16.744 27.239 16.7439 27.2381 16.7438 27.2369C16.7435 27.2345 16.743 27.2308 16.7424 27.2258C16.7412 27.2159 16.7393 27.2011 16.7369 27.1815C16.7321 27.1422 16.7251 27.084 16.716 27.0085C16.698 26.8576 16.6721 26.6379 16.6411 26.3635C16.5789 25.8148 16.4961 25.0485 16.4133 24.1789C16.247 22.4326 16.0833 20.2956 16.0833 18.6667H14.5833C14.5833 20.371 14.753 22.5674 14.92 24.3211C15.0039 25.2015 15.0877 25.9769 15.1506 26.5323C15.182 26.8101 15.2083 27.033 15.2267 27.1868C15.2359 27.2636 15.2431 27.3233 15.2481 27.3638C15.2505 27.384 15.2525 27.3995 15.2538 27.41C15.2544 27.4153 15.2549 27.4193 15.2552 27.422C15.2554 27.4234 15.2555 27.4244 15.2556 27.4252C15.2557 27.4255 15.2557 27.4258 15.2557 27.426C15.2558 27.4261 15.2558 27.4262 15.2558 27.4262C15.2558 27.4263 15.2558 27.4264 16 27.3333ZM16.0833 18.6667C16.0833 17.0453 16.2458 15.4144 16.4101 14.1825C16.492 13.5681 16.5739 13.0566 16.635 12.6996C16.6656 12.5212 16.691 12.3817 16.7086 12.2874C16.7174 12.2402 16.7243 12.2044 16.7288 12.1808C16.7311 12.1689 16.7329 12.1602 16.734 12.1545C16.7345 12.1517 16.7349 12.1496 16.7352 12.1484C16.7353 12.1478 16.7354 12.1474 16.7354 12.1471C16.7354 12.147 16.7355 12.147 16.7355 12.147C16.7355 12.147 16.7354 12.147 16.7355 12.147C16.7354 12.147 16.7354 12.1471 16 12C15.2646 11.8529 15.2645 11.853 15.2645 11.8531C15.2645 11.8531 15.2645 11.8532 15.2645 11.8533C15.2644 11.8535 15.2644 11.8538 15.2643 11.8541C15.2642 11.8547 15.2641 11.8555 15.2639 11.8565C15.2635 11.8584 15.2629 11.8612 15.2622 11.8648C15.2608 11.872 15.2588 11.8823 15.2562 11.8957C15.251 11.9225 15.2435 11.9616 15.2341 12.0121C15.2152 12.1131 15.1885 12.26 15.1566 12.4462C15.0928 12.8184 15.008 13.3486 14.9232 13.9842C14.7542 15.2522 14.5833 16.9547 14.5833 18.6667H16.0833ZM30.6667 8C29.9242 7.89393 29.9242 7.89399 29.9242 7.89406C29.9242 7.89411 29.9242 7.8942 29.9241 7.89429C29.9241 7.89448 29.9241 7.89474 29.924 7.89508C29.9239 7.89574 29.9238 7.89669 29.9236 7.89792C29.9233 7.90037 29.9228 7.90394 29.9221 7.90861C29.9208 7.91794 29.9189 7.93166 29.9164 7.94958C29.9114 7.98541 29.9041 8.03805 29.8948 8.10602C29.8764 8.24195 29.8501 8.43929 29.8185 8.68628C29.7555 9.1801 29.6715 9.87321 29.5874 10.6715C29.42 12.262 29.25 14.2932 29.25 16H30.75C30.75 14.3734 30.9133 12.4047 31.0792 10.8285C31.1618 10.0435 31.2445 9.36156 31.3065 8.87622C31.3374 8.63363 31.3632 8.44034 31.3812 8.30804C31.3902 8.2419 31.3972 8.19102 31.402 8.15687C31.4044 8.13979 31.4062 8.1269 31.4074 8.11837C31.408 8.11411 31.4084 8.11093 31.4087 8.10888C31.4089 8.10785 31.409 8.1071 31.409 8.10663C31.4091 8.10639 31.4091 8.10623 31.4091 8.10613C31.4091 8.10609 31.4091 8.10607 31.4091 8.10605C31.4091 8.10605 31.4091 8.10607 30.6667 8ZM29.25 16C29.25 17.7001 29.4191 20.2274 29.5857 22.3098C29.6694 23.3553 29.753 24.2959 29.8157 24.9752C29.847 25.3149 29.8732 25.5894 29.8915 25.7791C29.9006 25.874 29.9079 25.9477 29.9128 25.9977C29.9152 26.0228 29.9171 26.0419 29.9184 26.0548C29.9191 26.0613 29.9195 26.0662 29.9199 26.0695C29.92 26.0711 29.9202 26.0724 29.9202 26.0733C29.9203 26.0737 29.9203 26.074 29.9203 26.0742C29.9204 26.0744 29.9204 26.0745 29.9204 26.0745C29.9204 26.0746 29.9204 26.0746 30.6667 26C31.4129 25.9254 31.4129 25.9254 31.4129 25.9253C31.4129 25.9253 31.4129 25.9252 31.4129 25.9251C31.4129 25.925 31.4129 25.9247 31.4128 25.9243C31.4128 25.9235 31.4126 25.9224 31.4125 25.9208C31.4122 25.9177 31.4117 25.913 31.4111 25.9067C31.4098 25.8942 31.408 25.8755 31.4056 25.8509C31.4007 25.8017 31.3936 25.7289 31.3845 25.635C31.3664 25.4471 31.3405 25.1747 31.3093 24.8373C31.247 24.1624 31.164 23.2281 31.0809 22.1902C30.9142 20.1059 30.75 17.6332 30.75 16H29.25ZM29.9167 26C29.9167 27.4267 28.7601 28.5833 27.3333 28.5833V30.0833C29.5885 30.0833 31.4167 28.2552 31.4167 26H29.9167ZM27.3333 28.5833C25.9066 28.5833 24.75 27.4267 24.75 26H23.25C23.25 28.2552 25.0782 30.0833 27.3333 30.0833V28.5833ZM24.75 26C24.75 24.5733 25.9066 23.4167 27.3333 23.4167V21.9167C25.0782 21.9167 23.25 23.7448 23.25 26H24.75ZM27.3333 23.4167C28.7601 23.4167 29.9167 24.5733 29.9167 26H31.4167C31.4167 23.7448 29.5885 21.9167 27.3333 21.9167V23.4167ZM15.25 27.3333C15.25 28.7601 14.0934 29.9167 12.6667 29.9167V31.4167C14.9218 31.4167 16.75 29.5885 16.75 27.3333H15.25ZM12.6667 29.9167C11.2399 29.9167 10.0833 28.7601 10.0833 27.3333H8.58333C8.58333 29.5885 10.4115 31.4167 12.6667 31.4167V29.9167ZM10.0833 27.3333C10.0833 25.9066 11.2399 24.75 12.6667 24.75V23.25C10.4115 23.25 8.58333 25.0782 8.58333 27.3333H10.0833ZM12.6667 24.75C14.0934 24.75 15.25 25.9066 15.25 27.3333H16.75C16.75 25.0782 14.9218 23.25 12.6667 23.25V24.75Z" fill="white"/>
</svg>
