<svg width="42" height="42" viewBox="0 0 42 42" fill="none" xmlns="http://www.w3.org/2000/svg">
<path d="M22.8284 22.5049L23.3587 21.9746L23.3587 21.9746L22.8284 22.5049ZM8.66662 24L7.91662 24L8.66662 24ZM8.96993 28.6176L9.71315 28.5169L8.96993 28.6176ZM31.03 28.6176L30.2868 28.5169L31.03 28.6176ZM18.2633 8.98787L18.6559 9.62694L18.2633 8.98787ZM21.7366 8.98788L22.1291 8.34881L22.1291 8.34881L21.7366 8.98788ZM28.5846 29.9167H26.6666V31.4167H28.5846V29.9167ZM24.75 28V25.3334H23.25V28H24.75ZM24.75 25.3334C24.75 24.0736 24.2495 22.8654 23.3587 21.9746L22.2981 23.0353C22.9075 23.6448 23.25 24.4714 23.25 25.3334H24.75ZM23.3587 21.9746C22.4679 21.0838 21.2597 20.5834 20 20.5834V22.0834C20.8619 22.0834 21.6886 22.4258 22.2981 23.0353L23.3587 21.9746ZM20 20.5834C18.7402 20.5834 17.532 21.0838 16.6412 21.9746L17.7019 23.0353C18.3113 22.4258 19.138 22.0834 20 22.0834V20.5834ZM16.6412 21.9746C15.7504 22.8654 15.25 24.0736 15.25 25.3334H16.75C16.75 24.4714 17.0924 23.6448 17.7019 23.0353L16.6412 21.9746ZM15.25 25.3334V28H16.75V25.3334H15.25ZM13.3333 29.9167H11.4154V31.4167H13.3333V29.9167ZM17.8708 8.3488C16.3714 9.26981 14.1416 10.7978 12.1363 12.803L13.1969 13.8637C15.0886 11.972 17.2113 10.5142 18.6559 9.62694L17.8708 8.3488ZM27.8636 12.803C25.8583 10.7978 23.6286 9.26981 22.1291 8.34881L21.344 9.62695C22.7886 10.5142 24.9113 11.972 26.803 13.8637L27.8636 12.803ZM9.71315 28.5169C9.56086 27.3924 9.41662 25.8411 9.41662 24L7.91662 24C7.91662 25.9185 8.06684 27.5378 8.22672 28.7182L9.71315 28.5169ZM30.5833 24C30.5833 25.8411 30.4391 27.3924 30.2868 28.5169L31.7732 28.7182C31.9331 27.5378 32.0833 25.9185 32.0833 24H30.5833ZM12.1363 12.803C9.96695 14.9724 8.87966 16.745 8.36172 18.5433C7.85347 20.308 7.91662 22.046 7.91662 24L9.41662 24C9.41662 21.9541 9.36751 20.471 9.80313 18.9585C10.229 17.4796 11.1418 15.9189 13.1969 13.8637L12.1363 12.803ZM32.0833 24C32.0833 22.046 32.1464 20.308 31.6382 18.5433C31.1202 16.745 30.0329 14.9724 27.8636 12.803L26.803 13.8637C28.8581 15.9189 29.7708 17.4796 30.1968 18.9585C30.6324 20.471 30.5833 21.9541 30.5833 24H32.0833ZM11.4154 29.9167C10.5279 29.9167 9.82191 29.32 9.71315 28.5169L8.22672 28.7182C8.44639 30.3403 9.85556 31.4167 11.4154 31.4167V29.9167ZM15.25 28C15.25 29.0586 14.3918 29.9167 13.3333 29.9167V31.4167C15.2203 31.4167 16.75 29.887 16.75 28H15.25ZM26.6666 29.9167C25.6081 29.9167 24.75 29.0586 24.75 28H23.25C23.25 29.887 24.7796 31.4167 26.6666 31.4167V29.9167ZM28.5846 31.4167C30.1443 31.4167 31.5535 30.3403 31.7732 28.7182L30.2868 28.5169C30.178 29.32 29.4721 29.9167 28.5846 29.9167V31.4167ZM18.6559 9.62694C19.4879 9.11589 20.512 9.11589 21.344 9.62695L22.1291 8.34881C20.8155 7.54194 19.1844 7.54193 17.8708 8.3488L18.6559 9.62694Z" fill="white"/>
</svg>
