<svg width="42" height="42" viewBox="0 0 42 42" fill="none" xmlns="http://www.w3.org/2000/svg">
<path d="M30.1363 31.197C30.4292 31.4899 30.9041 31.4899 31.197 31.197C31.4899 30.9041 31.4899 30.4292 31.197 30.1364L30.1363 31.197ZM25.6014 24.5408C25.3085 24.2479 24.8336 24.2479 24.5407 24.5408C24.2478 24.8336 24.2478 25.3085 24.5407 25.6014L25.6014 24.5408ZM18 27.25C12.8914 27.25 8.75 23.1086 8.75 18H7.25C7.25 23.9371 12.0629 28.75 18 28.75V27.25ZM8.75 18C8.75 12.8914 12.8914 8.75 18 8.75V7.25C12.0629 7.25 7.25 12.0629 7.25 18H8.75ZM18 8.75C23.1086 8.75 27.25 12.8914 27.25 18H28.75C28.75 12.0629 23.9371 7.25 18 7.25V8.75ZM27.25 18C27.25 23.1086 23.1086 27.25 18 27.25V28.75C23.9371 28.75 28.75 23.9371 28.75 18H27.25ZM31.197 30.1364L25.6014 24.5408L24.5407 25.6014L30.1363 31.197L31.197 30.1364Z" fill="white"/>
</svg>
