<svg width="50" height="50" viewBox="0 0 50 50" fill="none" xmlns="http://www.w3.org/2000/svg">
<path d="M37.3943 14.8181C37.2938 14.4163 36.8866 14.1719 36.4848 14.2724C36.0829 14.3729 35.8386 14.7801 35.9391 15.1819L37.3943 14.8181ZM35.9391 34.8181C35.8386 35.2199 36.0829 35.6271 36.4848 35.7276C36.8866 35.8281 37.2938 35.5837 37.3943 35.1819L35.9391 34.8181ZM13.3333 15L13.5152 14.2724C13.1134 14.1719 12.7062 14.4163 12.6057 14.8181L13.3333 15ZM13.3333 35L12.6057 35.1819C12.7062 35.5837 13.1134 35.8281 13.5152 35.7276L13.3333 35ZM30 25L30.624 25.416C30.792 25.1641 30.792 24.8359 30.624 24.584L30 25ZM36.6667 15C35.9391 15.1819 35.939 15.1817 35.939 15.1816C35.939 15.1816 35.9389 15.1814 35.9389 15.1814C35.9389 15.1813 35.9389 15.1812 35.9389 15.1812C35.9389 15.1811 35.9389 15.1813 35.939 15.1817C35.9392 15.1824 35.9396 15.1839 35.9401 15.1863C35.9413 15.191 35.9432 15.199 35.9458 15.2102C35.9511 15.2326 35.9592 15.2681 35.9698 15.3165C35.991 15.4134 36.022 15.5623 36.0597 15.7632C36.1351 16.165 36.2369 16.775 36.3391 17.593C36.5436 19.2291 36.75 21.698 36.75 25H38.25C38.25 21.6353 38.0397 19.1043 37.8275 17.407C37.7215 16.5584 37.6149 15.9183 37.534 15.4868C37.4936 15.271 37.4595 15.1074 37.4351 14.996C37.423 14.9403 37.4132 14.8976 37.4062 14.8679C37.4028 14.8531 37.4 14.8415 37.398 14.8332C37.397 14.8291 37.3962 14.8257 37.3955 14.8232C37.3952 14.822 37.395 14.8209 37.3948 14.82C37.3947 14.8196 37.3946 14.8192 37.3945 14.8189C37.3944 14.8188 37.3944 14.8186 37.3944 14.8185C37.3943 14.8183 37.3943 14.8181 36.6667 15ZM36.75 25C36.75 28.302 36.5436 30.7709 36.3391 32.407C36.2369 33.225 36.1351 33.835 36.0597 34.2368C36.022 34.4377 35.991 34.5866 35.9698 34.6835C35.9592 34.7319 35.9511 34.7674 35.9458 34.7898C35.9432 34.801 35.9413 34.809 35.9401 34.8137C35.9396 34.8161 35.9392 34.8176 35.939 34.8183C35.9389 34.8187 35.9389 34.8189 35.9389 34.8188C35.9389 34.8188 35.9389 34.8187 35.9389 34.8186C35.9389 34.8186 35.939 34.8184 35.939 34.8184C35.939 34.8183 35.9391 34.8181 36.6667 35C37.3943 35.1819 37.3943 35.1817 37.3944 35.1815C37.3944 35.1814 37.3944 35.1812 37.3945 35.1811C37.3946 35.1808 37.3947 35.1804 37.3948 35.18C37.395 35.1791 37.3952 35.178 37.3955 35.1768C37.3962 35.1743 37.397 35.1709 37.398 35.1668C37.4 35.1585 37.4028 35.1469 37.4062 35.1321C37.4132 35.1024 37.423 35.0597 37.4351 35.004C37.4595 34.8926 37.4936 34.729 37.534 34.5132C37.6149 34.0817 37.7215 33.4416 37.8275 32.593C38.0397 30.8957 38.25 28.3647 38.25 25H36.75ZM13.3333 35C14.0609 34.8181 14.061 34.8183 14.061 34.8184C14.061 34.8184 14.0611 34.8186 14.0611 34.8186C14.0611 34.8187 14.0611 34.8188 14.0611 34.8188C14.0611 34.8189 14.0611 34.8187 14.061 34.8183C14.0608 34.8176 14.0604 34.8161 14.0599 34.8137C14.0587 34.809 14.0568 34.801 14.0542 34.7898C14.0489 34.7674 14.0408 34.7319 14.0302 34.6835C14.009 34.5866 13.978 34.4377 13.9403 34.2368C13.8649 33.835 13.7631 33.225 13.6609 32.407C13.4564 30.7709 13.25 28.302 13.25 25H11.75C11.75 28.3647 11.9603 30.8957 12.1725 32.593C12.2785 33.4416 12.3851 34.0817 12.466 34.5132C12.5064 34.729 12.5405 34.8926 12.5649 35.004C12.577 35.0597 12.5868 35.1024 12.5938 35.1321C12.5972 35.1469 12.6 35.1585 12.602 35.1668C12.603 35.1709 12.6038 35.1743 12.6045 35.1768C12.6048 35.178 12.605 35.1791 12.6052 35.18C12.6053 35.1804 12.6054 35.1808 12.6055 35.1811C12.6056 35.1812 12.6056 35.1814 12.6056 35.1815C12.6057 35.1817 12.6057 35.1819 13.3333 35ZM13.25 25C13.25 21.698 13.4564 19.2291 13.6609 17.593C13.7631 16.775 13.8649 16.165 13.9403 15.7632C13.978 15.5623 14.009 15.4134 14.0302 15.3165C14.0408 15.2681 14.0489 15.2326 14.0542 15.2102C14.0568 15.199 14.0587 15.191 14.0599 15.1863C14.0604 15.1839 14.0608 15.1824 14.061 15.1817C14.0611 15.1813 14.0611 15.1811 14.0611 15.1812C14.0611 15.1812 14.0611 15.1813 14.0611 15.1814C14.0611 15.1814 14.061 15.1816 14.061 15.1816C14.061 15.1817 14.0609 15.1819 13.3333 15C12.6057 14.8181 12.6057 14.8183 12.6056 14.8185C12.6056 14.8186 12.6056 14.8188 12.6055 14.8189C12.6054 14.8192 12.6053 14.8196 12.6052 14.82C12.605 14.8209 12.6048 14.822 12.6045 14.8232C12.6038 14.8257 12.603 14.8291 12.602 14.8332C12.6 14.8415 12.5972 14.8531 12.5938 14.8679C12.5868 14.8976 12.577 14.9403 12.5649 14.996C12.5405 15.1074 12.5064 15.271 12.466 15.4868C12.3851 15.9183 12.2785 16.5584 12.1725 17.407C11.9603 19.1043 11.75 21.6353 11.75 25H13.25ZM13.3333 15C13.1514 15.7276 13.1513 15.7276 13.1511 15.7275C13.1511 15.7275 13.1509 15.7275 13.1508 15.7275C13.1507 15.7274 13.1506 15.7274 13.1505 15.7274C13.1504 15.7274 13.1505 15.7274 13.1509 15.7275C13.1515 15.7276 13.1529 15.728 13.1551 15.7286C13.1596 15.7297 13.1673 15.7317 13.1782 15.7347C13.2 15.7405 13.2347 15.75 13.2819 15.7635C13.3764 15.7905 13.5213 15.8336 13.7151 15.8961C14.1025 16.0211 14.6854 16.2236 15.4506 16.5297C16.981 17.1418 19.2414 18.1684 22.1279 19.8178L22.8721 18.5155C19.9253 16.8316 17.6023 15.7748 16.0077 15.137C15.2104 14.8181 14.5954 14.6039 14.1756 14.4685C13.9657 14.4008 13.8046 14.3528 13.694 14.3212C13.6387 14.3054 13.596 14.2937 13.5661 14.2857C13.5512 14.2817 13.5395 14.2786 13.531 14.2764C13.5268 14.2753 13.5233 14.2744 13.5207 14.2738C13.5194 14.2734 13.5183 14.2732 13.5173 14.2729C13.5169 14.2728 13.5165 14.2727 13.5161 14.2726C13.516 14.2726 13.5157 14.2725 13.5156 14.2725C13.5154 14.2724 13.5152 14.2724 13.3333 15ZM22.1279 19.8178C25.001 21.4596 26.8309 22.8864 27.933 23.8883C28.4841 24.3893 28.8536 24.7844 29.0808 25.0475C29.1945 25.1791 29.2726 25.2777 29.3201 25.3402C29.3439 25.3714 29.36 25.3937 29.3691 25.4064C29.3737 25.4128 29.3765 25.4168 29.3776 25.4185C29.3781 25.4193 29.3783 25.4195 29.378 25.4191C29.3779 25.4189 29.3776 25.4185 29.3773 25.418C29.3771 25.4177 29.3769 25.4175 29.3767 25.4171C29.3766 25.417 29.3764 25.4167 29.3763 25.4166C29.3762 25.4163 29.376 25.416 30 25C30.624 24.584 30.6238 24.5837 30.6236 24.5833C30.6235 24.5832 30.6233 24.5829 30.6231 24.5826C30.6228 24.5822 30.6225 24.5816 30.6221 24.5811C30.6214 24.58 30.6205 24.5787 30.6195 24.5773C30.6176 24.5745 30.6153 24.571 30.6125 24.567C30.607 24.559 30.5997 24.5485 30.5906 24.5358C30.5724 24.5103 30.5471 24.4756 30.5139 24.4319C30.4475 24.3447 30.3498 24.222 30.2161 24.0671C29.9485 23.7573 29.5367 23.319 28.942 22.7784C27.7524 21.6969 25.8323 20.207 22.8721 18.5155L22.1279 19.8178ZM30 25C29.376 24.584 29.3762 24.5837 29.3763 24.5834C29.3764 24.5833 29.3766 24.583 29.3767 24.5829C29.3769 24.5825 29.3771 24.5823 29.3773 24.582C29.3776 24.5815 29.3779 24.5811 29.378 24.5809C29.3783 24.5805 29.3781 24.5807 29.3776 24.5815C29.3765 24.5832 29.3737 24.5872 29.3691 24.5936C29.36 24.6063 29.3439 24.6286 29.3201 24.6598C29.2726 24.7223 29.1945 24.8209 29.0808 24.9525C28.8536 25.2156 28.4841 25.6107 27.933 26.1117C26.8309 27.1136 25.001 28.5404 22.1279 30.1822L22.8721 31.4845C25.8323 29.793 27.7524 28.3031 28.942 27.2216C29.5367 26.681 29.9485 26.2427 30.2161 25.9329C30.3498 25.778 30.4475 25.6553 30.5139 25.5681C30.5471 25.5244 30.5724 25.4897 30.5906 25.4642C30.5997 25.4515 30.607 25.441 30.6125 25.433C30.6153 25.429 30.6176 25.4255 30.6195 25.4227C30.6205 25.4213 30.6214 25.42 30.6221 25.4189C30.6225 25.4184 30.6228 25.4178 30.6231 25.4174C30.6233 25.4171 30.6235 25.4168 30.6236 25.4167C30.6238 25.4163 30.624 25.416 30 25ZM22.1279 30.1822C19.2414 31.8316 16.981 32.8582 15.4506 33.4703C14.6854 33.7764 14.1025 33.9789 13.7151 34.1039C13.5213 34.1664 13.3764 34.2095 13.2819 34.2365C13.2347 34.25 13.2 34.2595 13.1782 34.2653C13.1673 34.2683 13.1596 34.2703 13.1551 34.2714C13.1529 34.272 13.1515 34.2724 13.1509 34.2725C13.1505 34.2726 13.1504 34.2726 13.1505 34.2726C13.1506 34.2726 13.1507 34.2726 13.1508 34.2725C13.1509 34.2725 13.1511 34.2725 13.1511 34.2725C13.1513 34.2724 13.1514 34.2724 13.3333 35C13.5152 35.7276 13.5154 35.7276 13.5156 35.7275C13.5157 35.7275 13.516 35.7274 13.5161 35.7274C13.5165 35.7273 13.5169 35.7272 13.5173 35.7271C13.5183 35.7268 13.5194 35.7266 13.5207 35.7262C13.5233 35.7256 13.5268 35.7247 13.531 35.7236C13.5395 35.7214 13.5512 35.7183 13.5661 35.7143C13.596 35.7063 13.6387 35.6946 13.694 35.6788C13.8046 35.6472 13.9657 35.5992 14.1756 35.5315C14.5954 35.3961 15.2104 35.1819 16.0077 34.863C17.6023 34.2252 19.9253 33.1684 22.8721 31.4845L22.1279 30.1822Z" fill="white"/>
</svg>
